#!OML:ASF H:\Terrain\Patient Classification 1\Animal1\Tuesday\Animal1.ASF
:FULLY-SPECIFIED
:DEGREES
1851
root -3.16352 15.7639 -19.6919 -161.128 -172.568 -179.764
lowerback 16.6412 -2.56521 3.27096
upperback 2.71233 -2.75875 0.51991
thorax -6.54427 -1.40756 -0.691434
lowerneck -5.32131 11.2441 -0.726424
upperneck -13.3075 14.6475 -6.61694
head -2.91943 7.57539 -2.10387
rclavicle 2.4612e-014 -2.31584e-014
rhumerus -21.1586 22.4579 -84.3625
rradius 88.9878
rwrist 14.8744
rhand -5.92892 17.0874
rfingers 7.12502
rthumb 19.9007 -11.9137
lclavicle 2.4612e-014 -2.31584e-014
lhumerus -21.6832 -20.4283 98.5268
lradius 86.5945
lwrist -57.2095
lhand 12.3833 41.1382
lfingers 7.12502
lthumb 37.3832 67.1026
rfemur -41.5612 4.34126 14.2222
rtibia 36.4555
rfoot -6.35587 -17.0879
rtoes -24.3266
lfemur -41.1422 2.08512 -10.448
ltibia 45.6195
lfoot -14.7965 25.1341
ltoes 40.8132
1852
root -3.14564 15.7524 -19.6812 -161.013 -174.412 -180.076
lowerback 16.6199 -2.64535 3.48886
upperback 2.60269 -2.8104 0.673463
thorax -6.65491 -1.43677 -0.637041
lowerneck -5.76392 11.0531 -0.665408
upperneck -13.0413 14.4384 -6.23056
head -2.78218 7.44862 -1.94716
rclavicle 1.16538e-014 -8.62228e-015
rhumerus -20.9636 22.6519 -84.2612
rradius 88.95
rwrist 15.0471
rhand -5.81885 17.1078
rfingers 7.12502
rthumb 20.0065 -11.8822
lclavicle 1.16538e-014 -8.62228e-015
lhumerus -21.9643 -20.3479 98.6246
lradius 86.7243
lwrist -57.2633
lhand 12.2965 41.1252
lfingers 7.12502
lthumb 37.3011 67.1113
rfemur -41.1792 3.85552 14.613
rtibia 36.4833
rfoot -6.00458 -17.7939
rtoes -23.729
lfemur -42.0111 1.94912 -9.86739
ltibia 45.2576
lfoot -14.8995 24.5855
ltoes 40.9652
1853
root -3.12931 15.748 -19.6683 -161.001 -176.041 -180.354
lowerback 16.6938 -2.60491 3.50051
upperback 2.39307 -2.7339 0.826809
thorax -6.91045 -1.40151 -0.488567
lowerneck -5.62318 10.7843 -0.762869
upperneck -12.945 14.1161 -5.81344
head -2.82136 7.27999 -1.81154
rclavicle -2.57985e-014 3.57688e-014
rhumerus -21.1151 22.8403 -84.18
rradius 88.9759
rwrist 15.0197
rhand -6.04911 17.524
rfingers 7.12502
rthumb 19.7851 -11.489
lclavicle -2.57985e-014 3.57688e-014
lhumerus -22.4264 -20.2996 98.9127
lradius 86.9142
lwrist -57.396
lhand 12.0312 41.0863
lfingers 7.12502
lthumb 37.0502 67.1377
rfemur -40.6924 3.54198 14.9172
rtibia 36.4636
rfoot -5.744 -18.6173
rtoes -23.2232
lfemur -42.6835 1.92052 -9.39089
ltibia 44.8917
lfoot -14.7542 24.3844
ltoes 40.1184
1854
root -3.11378 15.7478 -19.6512 -161.097 -177.373 -180.902
lowerback 16.802 -2.35476 3.73515
upperback 2.25532 -2.34857 0.895681
thorax -7.10959 -1.22317 -0.627654
lowerneck -5.19064 10.4148 -0.624839
upperneck -13.1938 13.6283 -5.5437
head -3.00446 7.03047 -1.79358
rclavicle -3.4924e-014 4.13006e-014
rhumerus -21.1867 22.7346 -84.0606
rradius 88.9752
rwrist 15.2343
rhand -6.23129 17.6111
rfingers 7.12502
rthumb 19.61 -11.4199
lclavicle -3.4924e-014 4.13006e-014
lhumerus -22.796 -20.7154 99.1008
lradius 87.0299
lwrist -57.3
lhand 11.2348 40.8638
lfingers 7.12502
lthumb 36.2965 67.1069
rfemur -40.1493 3.41644 15.4962
rtibia 36.4456
rfoot -5.67089 -19.5853
rtoes -23.544
lfemur -43.0792 2.23226 -8.73464
ltibia 44.4363
lfoot -14.3842 24.4565
ltoes 38.9474
1855
root -3.09361 15.7424 -19.6249 -161.26 -179.175 -181.396
lowerback 16.8133 -2.27357 4.18223
upperback 2.24779 -2.15002 1.00306
thorax -7.12775 -1.13727 -0.810303
lowerneck -5.39055 10.0398 -0.630396
upperneck -13.1624 13.1707 -5.08165
head -3.00272 6.78736 -1.6351
rclavicle -1.58034e-014 1.53996e-014
rhumerus -21.1144 22.6928 -83.769
rradius 89.0852
rwrist 15.7374
rhand -5.81854 17.8986
rfingers 7.12502
rthumb 20.0068 -11.0915
lclavicle -1.58034e-014 1.53996e-014
lhumerus -22.9611 -21.1972 99.2086
lradius 87.1504
lwrist -57.0764
lhand 10.4106 40.9245
lfingers 7.12502
lthumb 35.5157 67.3586
rfemur -39.4568 3.07463 16.0631
rtibia 36.4361
rfoot -5.92712 -20.8449
rtoes -23.0029
lfemur -43.5821 2.17039 -8.04004
ltibia 43.9675
lfoot -13.9746 24.4891
ltoes 39.6529
1856
root -3.07154 15.7441 -19.5865 -161.615 -181.625 -181.455
lowerback 16.7742 -2.52144 4.36558
upperback 2.36212 -2.42697 1.2261
thorax -6.99405 -1.26836 -0.61607
lowerneck -6.13687 9.76521 -1.08266
upperneck -12.7072 12.8937 -4.41465
head -2.79981 6.64006 -1.2927
rclavicle 2.71341e-014 -9.41742e-015
rhumerus -21.0405 22.8893 -83.5314
rradius 89.1971
rwrist 15.7434
rhand -5.64583 18.1638
rfingers 7.12502
rthumb 20.1728 -10.8087
lclavicle 2.71341e-014 -9.41742e-015
lhumerus -23.0763 -21.2441 99.3918
lradius 87.356
lwrist -57.0747
lhand 10.5406 41.2827
lfingers 7.12502
lthumb 35.6389 67.6871
rfemur -38.3475 2.49631 16.2269
rtibia 36.4806
rfoot -6.1606 -22.5358
rtoes -22.0937
lfemur -44.1447 1.37538 -7.65152
ltibia 43.7054
lfoot -14.1195 24.4667
ltoes 41.2859
1857
root -3.03683 15.7305 -19.5761 -161.226 -182.904 -181.799
lowerback 16.3386 -2.31887 4.37385
upperback 2.13898 -2.16879 1.35133
thorax -6.97914 -1.14519 -0.555749
lowerneck -6.66186 9.51146 -1.26213
upperneck -12.1302 12.6232 -3.86328
head -2.56705 6.4886 -1.03949
rclavicle -9.61621e-015 -4.96962e-016
rhumerus -21.202 22.84 -83.7597
rradius 89.182
rwrist 15.5628
rhand -6.88707 17.758
rfingers 7.12502
rthumb 18.9794 -11.336
lclavicle -9.61621e-015 -4.96962e-016
lhumerus -23.3734 -21.2771 99.4973
lradius 87.5381
lwrist -56.8265
lhand 11.5723 40.7346
lfingers 7.12502
lthumb 36.6161 66.8973
rfemur -38.4882 2.30442 16.4531
rtibia 36.4872
rfoot -4.91021 -23.6086
rtoes -24.9526
lfemur -45.2511 1.73579 -7.36074
ltibia 43.2796
lfoot -14.3036 24.7815
ltoes 41.9497
1858
root -3.06443 15.6778 -19.5888 -158.597 -181.795 -183.196
lowerback 13.653 -0.92524 3.31347
upperback 1.40892 -0.61386 1.66054
thorax -6.18832 -0.362358 -0.00421776
lowerneck -7.32686 9.1859 -1.38834
upperneck -11.5012 12.2588 -3.2529
head -2.29563 6.2875 -0.771798
rclavicle -1.19768e-014 5.46658e-016
rhumerus -21.1098 22.6286 -83.9007
rradius 89.1933
rwrist 15.6284
rhand -7.59273 17.3346
rfingers 7.12502
rthumb 18.3007 -11.8246
lclavicle -1.19768e-014 5.46658e-016
lhumerus -23.4189 -21.3784 99.4101
lradius 87.6159
lwrist -56.3541
lhand 12.3961 39.6745
lfingers 7.12502
lthumb 37.3953 65.6358
rfemur -41.8602 4.16968 17.1426
rtibia 36.5451
rfoot -3.27397 -23.58
rtoes -27.7477
lfemur -48.2144 5.32556 -6.66836
ltibia 43.056
lfoot -14.7293 24.9983
ltoes 45.2449
1859
root -2.97352 15.7114 -19.5227 -161.354 -186.215 -182.552
lowerback 16.2819 -2.11904 4.80562
upperback 2.04121 -1.80951 1.57786
thorax -7.04315 -0.98072 -0.637375
lowerneck -8.08429 8.77676 -1.67853
upperneck -11.1811 11.7901 -2.63645
head -2.12361 6.04729 -0.492113
rclavicle 7.55382e-015 -1.68967e-015
rhumerus -20.6323 22.4687 -83.6474
rradius 89.1674
rwrist 15.5343
rhand -7.00541 17.092
rfingers 7.12502
rthumb 18.8656 -12.0131
lclavicle 7.55382e-015 -1.68967e-015
lhumerus -23.2362 -21.5345 99.4477
lradius 87.6875
lwrist -56.1546
lhand 12.6512 39.747
lfingers 7.12502
lthumb 37.6364 65.6443
rfemur -37.4085 1.51242 17.291
rtibia 36.4505
rfoot -4.89167 -24.7476
rtoes -25.0671
lfemur -46.5485 2.16008 -6.67122
ltibia 42.4187
lfoot -15.0113 25.0852
ltoes 42.309
1860
root -2.9212 15.7068 -19.4813 -161.495 -188.174 -182.649
lowerback 16.0287 -2.09346 5.18064
upperback 1.97036 -1.72502 1.5477
thorax -6.98815 -0.949927 -0.905551
lowerneck -8.00186 8.30945 -1.66487
upperneck -11.3307 11.1964 -2.16903
head -2.21564 5.74462 -0.36512
rclavicle -1.04362e-014 -6.75868e-015
rhumerus -20.4954 22.2493 -83.4222
rradius 89.1091
rwrist 15.1658
rhand -6.39814 16.4572
rfingers 7.12502
rthumb 19.4496 -12.5901
lclavicle -1.04362e-014 -6.75868e-015
lhumerus -23.5952 -22.0231 99.783
lradius 87.9955
lwrist -55.7577
lhand 11.537 41.0856
lfingers 7.12502
lthumb 36.5826 67.2568
rfemur -36.6119 0.572272 17.5058
rtibia 36.3415
rfoot -4.52283 -25.4937
rtoes -28.4763
lfemur -47.0813 1.59473 -6.50401
ltibia 41.9429
lfoot -15.4808 25.4028
ltoes 41.0041
1861
root -2.87689 15.715 -19.4307 -161.768 -190.025 -182.98
lowerback 15.754 -2.00749 5.44475
upperback 1.79512 -1.57602 1.57232
thorax -7.02367 -0.887864 -1.06459
lowerneck -7.37718 7.89404 -1.47631
upperneck -11.43 10.6653 -1.55302
head -2.37909 5.46141 -0.240374
rclavicle 4.77083e-015 -2.52457e-014
rhumerus -20.8978 22.1016 -83.4395
rradius 89.2036
rwrist 14.7581
rhand -6.20972 16.0996
rfingers 7.12502
rthumb 19.6307 -12.9292
lclavicle 4.77083e-015 -2.52457e-014
lhumerus -24.5056 -22.5624 100.148
lradius 88.5009
lwrist -55.2913
lhand 10.32 42.4323
lfingers 7.12502
lthumb 35.4297 68.8869
rfemur -35.616 0.00816848 17.9054
rtibia 36.1223
rfoot -4.69212 -26.467
rtoes -25.804
lfemur -47.2589 1.29308 -6.15337
ltibia 41.13
lfoot -16.0841 25.6667
ltoes 40.526
1862
root -2.82542 15.7169 -19.3886 -161.957 -191.749 -183.421
lowerback 15.5525 -1.94587 5.71378
upperback 1.58211 -1.45064 1.61743
thorax -7.14007 -0.839766 -1.19589
lowerneck -7.19557 7.54932 -1.39971
upperneck -11.1562 10.2573 -0.738456
head -2.3606 5.23596 -0.00247729
rclavicle 3.06128e-014 9.59136e-015
rhumerus -21.3148 22.1571 -83.6341
rradius 89.351
rwrist 14.4699
rhand -6.3057 16.3568
rfingers 7.12502
rthumb 19.5385 -12.6814
lclavicle 3.06128e-014 9.59136e-015
lhumerus -25.2215 -22.7124 100.223
lradius 88.664
lwrist -55.5357
lhand 11.3165 42.372
lfingers 7.12502
lthumb 36.3739 68.5958
rfemur -34.8708 -0.438718 18.3363
rtibia 36.0042
rfoot -5.51266 -26.8734
rtoes -22.5149
lfemur -47.729 1.48883 -5.96141
ltibia 40.5365
lfoot -16.2792 26.2004
ltoes 38.4924
1863
root -2.76713 15.7185 -19.3453 -162.182 -193.366 -183.611
lowerback 15.4872 -1.82868 5.73024
upperback 1.48004 -1.28665 1.69839
thorax -7.20196 -0.762229 -1.15404
lowerneck -7.40013 7.12245 -1.78396
upperneck -10.9056 9.76886 0.0940204
head -2.30737 4.99031 0.329973
rclavicle 4.96962e-015 -2.18663e-015
rhumerus -21.3621 22.3074 -83.445
rradius 89.368
rwrist 14.0662
rhand -6.36417 16.0681
rfingers 7.12502
rthumb 19.4823 -12.9759
lclavicle 4.96962e-015 -2.18663e-015
lhumerus -25.3745 -22.798 100.291
lradius 88.5073
lwrist -55.9492
lhand 11.6458 41.6545
lfingers 7.12502
lthumb 36.6856 67.7996
rfemur -34.0646 -0.889059 18.4335
rtibia 35.8965
rfoot -5.92859 -27.3187
rtoes -22.0567
lfemur -48.0377 1.6371 -6.12268
ltibia 39.901
lfoot -15.8501 26.9335
ltoes 35.7058
1864
root -2.71485 15.7289 -19.2887 -162.412 -194.854 -183.791
lowerback 15.2746 -1.4741 5.60061
upperback 1.48459 -0.846177 1.84246
thorax -7.04643 -0.539668 -1.02715
lowerneck -7.66886 6.47791 -2.45862
upperneck -10.8583 9.01513 0.986211
head -2.31865 4.62524 0.72884
rclavicle 2.98177e-016 -7.95139e-015
rhumerus -21.2537 22.0176 -82.8479
rradius 89.2472
rwrist 13.8665
rhand -6.72216 15.7052
rfingers 7.12502
rthumb 19.138 -13.3732
lclavicle 2.98177e-016 -7.95139e-015
lhumerus -25.2688 -23.5467 100.678
lradius 88.451
lwrist -55.7834
lhand 10.8597 41.7294
lfingers 7.12502
lthumb 35.9413 68.0603
rfemur -33.1949 -1.00033 18.4505
rtibia 35.8042
rfoot -6.69515 -28.0108
rtoes -21.1816
lfemur -48.1006 1.73055 -6.2215
ltibia 39.259
lfoot -16.1818 27.0763
ltoes 35.4981
